<svg width="1920" height="1080" viewBox="0 0 1920 1080" fill="none" xmlns="http://www.w3.org/2000/svg">
<circle cx="1367" cy="250" r="250" fill="#D08700"/>
<ellipse cx="624.5" cy="831" rx="200.5" ry="200" fill="#F0B100"/>
<path d="M1071.92 608.108C1162.03 459.298 981.412 401.208 1131.96 200.604C1282.5 0 1456 -2.45566e-06 1920 5.43391e-10V267L1884.59 262.418C1801.31 251.641 1748.36 344.8 1716.92 422.671V422.671C1680.41 513.11 1558.21 496.079 1486 577C1402.26 670.835 1500.54 821.211 1403.34 908.844C1213.5 1080 570.393 1080 570.393 1080H0C0 1080 887.013 913.433 1071.92 608.108Z" fill="#155DFC"/>
<path d="M1510 325.5C1510 546.414 1058.91 917 838 917C617.086 917 424 709.572 424 488.658C424 267.745 603.086 262.159 824 262.159C1044.91 262.159 1510 104.586 1510 325.5Z" fill="#2B7FFF"/>
</svg>
